<svg width="76" height="22" viewBox="0 0 76 22" fill="none" xmlns="http://www.w3.org/2000/svg">
<path d="M1.72266 11.5391L4.7168 7.80664L0.369141 6.57617L1.18945 4.16992L5.45508 5.86523L5.19531 1.09375H7.84766L7.56055 5.96094L11.7441 4.2793L12.5508 6.72656L8.13477 7.95703L11.0332 11.6074L8.88672 13.1113L6.37109 9.11914L3.86914 12.9883L1.72266 11.5391ZM27.4805 9.29688V12.7422C27.4805 14.237 27.321 15.5267 27.002 16.6113C26.6829 17.6868 26.2227 18.571 25.6211 19.2637C25.0286 19.9473 24.3223 20.4531 23.502 20.7812C22.6816 21.1094 21.7702 21.2734 20.7676 21.2734C19.9655 21.2734 19.2181 21.1732 18.5254 20.9727C17.8327 20.763 17.2083 20.4395 16.6523 20.002C16.1055 19.5645 15.6315 19.013 15.2305 18.3477C14.8385 17.6732 14.5378 16.8711 14.3281 15.9414C14.1185 15.0117 14.0137 13.9453 14.0137 12.7422V9.29688C14.0137 7.80208 14.1732 6.52148 14.4922 5.45508C14.8203 4.37956 15.2806 3.5 15.873 2.81641C16.4746 2.13281 17.1855 1.63151 18.0059 1.3125C18.8262 0.984375 19.7376 0.820312 20.7402 0.820312C21.5423 0.820312 22.2852 0.92513 22.9688 1.13477C23.6615 1.33529 24.2858 1.64974 24.8418 2.07812C25.3978 2.50651 25.8717 3.05794 26.2637 3.73242C26.6556 4.39779 26.9564 5.19531 27.166 6.125C27.3757 7.04557 27.4805 8.10286 27.4805 9.29688ZM23.5293 13.2617V8.76367C23.5293 8.04362 23.4883 7.41471 23.4062 6.87695C23.3333 6.33919 23.2194 5.88346 23.0645 5.50977C22.9095 5.12695 22.7181 4.81706 22.4902 4.58008C22.2624 4.3431 22.0026 4.16992 21.7109 4.06055C21.4193 3.95117 21.0957 3.89648 20.7402 3.89648C20.2936 3.89648 19.8971 3.98307 19.5508 4.15625C19.2135 4.32943 18.9264 4.60742 18.6895 4.99023C18.4525 5.36393 18.2702 5.86523 18.1426 6.49414C18.0241 7.11393 17.9648 7.87044 17.9648 8.76367V13.2617C17.9648 13.9818 18.0013 14.6152 18.0742 15.1621C18.1562 15.709 18.2747 16.1784 18.4297 16.5703C18.5938 16.9531 18.7852 17.2676 19.0039 17.5137C19.2318 17.7507 19.4915 17.9238 19.7832 18.0332C20.084 18.1426 20.4121 18.1973 20.7676 18.1973C21.2051 18.1973 21.5924 18.1107 21.9297 17.9375C22.276 17.7552 22.5677 17.4727 22.8047 17.0898C23.0508 16.6979 23.2331 16.1875 23.3516 15.5586C23.4701 14.9297 23.5293 14.1641 23.5293 13.2617ZM43.5586 9.29688V12.7422C43.5586 14.237 43.3991 15.5267 43.0801 16.6113C42.7611 17.6868 42.3008 18.571 41.6992 19.2637C41.1068 19.9473 40.4004 20.4531 39.5801 20.7812C38.7598 21.1094 37.8483 21.2734 36.8457 21.2734C36.0436 21.2734 35.2962 21.1732 34.6035 20.9727C33.9108 20.763 33.2865 20.4395 32.7305 20.002C32.1836 19.5645 31.7096 19.013 31.3086 18.3477C30.9167 17.6732 30.6159 16.8711 30.4062 15.9414C30.1966 15.0117 30.0918 13.9453 30.0918 12.7422V9.29688C30.0918 7.80208 30.2513 6.52148 30.5703 5.45508C30.8984 4.37956 31.3587 3.5 31.9512 2.81641C32.5527 2.13281 33.2637 1.63151 34.084 1.3125C34.9043 0.984375 35.8158 0.820312 36.8184 0.820312C37.6204 0.820312 38.3633 0.92513 39.0469 1.13477C39.7396 1.33529 40.3639 1.64974 40.9199 2.07812C41.4759 2.50651 41.9499 3.05794 42.3418 3.73242C42.7337 4.39779 43.0345 5.19531 43.2441 6.125C43.4538 7.04557 43.5586 8.10286 43.5586 9.29688ZM39.6074 13.2617V8.76367C39.6074 8.04362 39.5664 7.41471 39.4844 6.87695C39.4115 6.33919 39.2975 5.88346 39.1426 5.50977C38.9876 5.12695 38.7962 4.81706 38.5684 4.58008C38.3405 4.3431 38.0807 4.16992 37.7891 4.06055C37.4974 3.95117 37.1738 3.89648 36.8184 3.89648C36.3717 3.89648 35.9753 3.98307 35.6289 4.15625C35.2917 4.32943 35.0046 4.60742 34.7676 4.99023C34.5306 5.36393 34.3483 5.86523 34.2207 6.49414C34.1022 7.11393 34.043 7.87044 34.043 8.76367V13.2617C34.043 13.9818 34.0794 14.6152 34.1523 15.1621C34.2344 15.709 34.3529 16.1784 34.5078 16.5703C34.6719 16.9531 34.8633 17.2676 35.082 17.5137C35.3099 17.7507 35.5697 17.9238 35.8613 18.0332C36.1621 18.1426 36.4902 18.1973 36.8457 18.1973C37.2832 18.1973 37.6706 18.1107 38.0078 17.9375C38.3542 17.7552 38.6458 17.4727 38.8828 17.0898C39.1289 16.6979 39.3112 16.1875 39.4297 15.5586C39.5482 14.9297 39.6074 14.1641 39.6074 13.2617ZM59.6367 9.29688V12.7422C59.6367 14.237 59.4772 15.5267 59.1582 16.6113C58.8392 17.6868 58.3789 18.571 57.7773 19.2637C57.1849 19.9473 56.4785 20.4531 55.6582 20.7812C54.8379 21.1094 53.9264 21.2734 52.9238 21.2734C52.1217 21.2734 51.3743 21.1732 50.6816 20.9727C49.9889 20.763 49.3646 20.4395 48.8086 20.002C48.2617 19.5645 47.7878 19.013 47.3867 18.3477C46.9948 17.6732 46.694 16.8711 46.4844 15.9414C46.2747 15.0117 46.1699 13.9453 46.1699 12.7422V9.29688C46.1699 7.80208 46.3294 6.52148 46.6484 5.45508C46.9766 4.37956 47.4368 3.5 48.0293 2.81641C48.6309 2.13281 49.3418 1.63151 50.1621 1.3125C50.9824 0.984375 51.8939 0.820312 52.8965 0.820312C53.6986 0.820312 54.4414 0.92513 55.125 1.13477C55.8177 1.33529 56.4421 1.64974 56.998 2.07812C57.554 2.50651 58.028 3.05794 58.4199 3.73242C58.8118 4.39779 59.1126 5.19531 59.3223 6.125C59.5319 7.04557 59.6367 8.10286 59.6367 9.29688ZM55.6855 13.2617V8.76367C55.6855 8.04362 55.6445 7.41471 55.5625 6.87695C55.4896 6.33919 55.3757 5.88346 55.2207 5.50977C55.0658 5.12695 54.8743 4.81706 54.6465 4.58008C54.4186 4.3431 54.1589 4.16992 53.8672 4.06055C53.5755 3.95117 53.252 3.89648 52.8965 3.89648C52.4499 3.89648 52.0534 3.98307 51.707 4.15625C51.3698 4.32943 51.0827 4.60742 50.8457 4.99023C50.6087 5.36393 50.4264 5.86523 50.2988 6.49414C50.1803 7.11393 50.1211 7.87044 50.1211 8.76367V13.2617C50.1211 13.9818 50.1576 14.6152 50.2305 15.1621C50.3125 15.709 50.431 16.1784 50.5859 16.5703C50.75 16.9531 50.9414 17.2676 51.1602 17.5137C51.388 17.7507 51.6478 17.9238 51.9395 18.0332C52.2402 18.1426 52.5684 18.1973 52.9238 18.1973C53.3613 18.1973 53.7487 18.1107 54.0859 17.9375C54.4323 17.7552 54.724 17.4727 54.9609 17.0898C55.207 16.6979 55.3893 16.1875 55.5078 15.5586C55.6263 14.9297 55.6855 14.1641 55.6855 13.2617ZM75.7148 9.29688V12.7422C75.7148 14.237 75.5553 15.5267 75.2363 16.6113C74.9173 17.6868 74.457 18.571 73.8555 19.2637C73.263 19.9473 72.5566 20.4531 71.7363 20.7812C70.916 21.1094 70.0046 21.2734 69.002 21.2734C68.1999 21.2734 67.4525 21.1732 66.7598 20.9727C66.0671 20.763 65.4427 20.4395 64.8867 20.002C64.3398 19.5645 63.8659 19.013 63.4648 18.3477C63.0729 17.6732 62.7721 16.8711 62.5625 15.9414C62.3529 15.0117 62.248 13.9453 62.248 12.7422V9.29688C62.248 7.80208 62.4076 6.52148 62.7266 5.45508C63.0547 4.37956 63.515 3.5 64.1074 2.81641C64.709 2.13281 65.4199 1.63151 66.2402 1.3125C67.0605 0.984375 67.972 0.820312 68.9746 0.820312C69.7767 0.820312 70.5195 0.92513 71.2031 1.13477C71.8958 1.33529 72.5202 1.64974 73.0762 2.07812C73.6322 2.50651 74.1061 3.05794 74.498 3.73242C74.89 4.39779 75.1908 5.19531 75.4004 6.125C75.61 7.04557 75.7148 8.10286 75.7148 9.29688ZM71.7637 13.2617V8.76367C71.7637 8.04362 71.7227 7.41471 71.6406 6.87695C71.5677 6.33919 71.4538 5.88346 71.2988 5.50977C71.1439 5.12695 70.9525 4.81706 70.7246 4.58008C70.4967 4.3431 70.237 4.16992 69.9453 4.06055C69.6536 3.95117 69.3301 3.89648 68.9746 3.89648C68.528 3.89648 68.1315 3.98307 67.7852 4.15625C67.4479 4.32943 67.1608 4.60742 66.9238 4.99023C66.6868 5.36393 66.5046 5.86523 66.377 6.49414C66.2585 7.11393 66.1992 7.87044 66.1992 8.76367V13.2617C66.1992 13.9818 66.2357 14.6152 66.3086 15.1621C66.3906 15.709 66.5091 16.1784 66.6641 16.5703C66.8281 16.9531 67.0195 17.2676 67.2383 17.5137C67.4661 17.7507 67.7259 17.9238 68.0176 18.0332C68.3184 18.1426 68.6465 18.1973 69.002 18.1973C69.4395 18.1973 69.8268 18.1107 70.1641 17.9375C70.5104 17.7552 70.8021 17.4727 71.0391 17.0898C71.2852 16.6979 71.4674 16.1875 71.5859 15.5586C71.7044 14.9297 71.7637 14.1641 71.7637 13.2617Z" fill="#FFC600"/>
</svg>
