<svg width="16" height="17" viewBox="0 0 16 17" fill="none" xmlns="http://www.w3.org/2000/svg">
<path d="M3.51197 6.5152C3.31854 6.56027 3.14201 6.70864 3.05374 6.89831C3.01055 6.99409 3.00116 7.03541 3.00303 7.17063C3.00303 7.47111 2.82275 7.26828 5.24162 9.69092C6.70084 11.152 7.42011 11.86 7.47833 11.8919C7.61543 11.9652 7.77506 11.9915 7.91779 11.9614C7.98164 11.9483 8.07366 11.9164 8.12061 11.8919C8.17883 11.86 8.89811 11.152 10.3573 9.69092C12.7762 7.26828 12.5959 7.47111 12.5959 7.17063C12.5959 7.03541 12.5884 6.99409 12.5433 6.89456C12.3856 6.54901 11.9649 6.40252 11.6212 6.57342C11.5724 6.59783 10.8926 7.26453 9.67373 8.48148L7.79947 10.3539L5.92522 8.48148C4.70075 7.25889 4.02655 6.59783 3.97772 6.57342C3.83499 6.50393 3.65846 6.4814 3.51197 6.5152Z" fill="#9CA6AF"/>
</svg>
