<svg width="18" height="18" viewBox="0 0 18 18" fill="none" xmlns="http://www.w3.org/2000/svg">
<path fill-rule="evenodd" clip-rule="evenodd" d="M11.3627 14.1706C11.6659 13.8046 12.1329 13.5084 12.5686 13.4038C12.8439 13.3376 13.3493 13.3376 13.6281 13.4038C14.0324 13.4979 14.3425 13.6792 14.6736 14.0103C15.0884 14.425 15.2731 14.7979 15.3323 15.3416C15.4334 16.2826 14.949 17.1783 14.1021 17.5965C13.2203 18.0356 12.2305 17.8753 11.537 17.1853C11.0804 16.7357 10.8643 16.2233 10.8609 15.6134C10.8609 15.4322 10.8818 15.1952 10.9062 15.0907C10.9689 14.8223 11.1919 14.3727 11.3627 14.1706ZM13.9452 15.9062C14.0951 15.4636 13.886 14.9582 13.4712 14.7735C13.3005 14.6968 12.9276 14.6899 12.7638 14.7596C12.3351 14.9478 12.1085 15.4287 12.2514 15.8574C12.4222 16.3662 12.9973 16.6241 13.4712 16.4011C13.6769 16.307 13.879 16.0944 13.9452 15.9062ZM5.86312 13.4178C4.60149 13.7488 3.88703 15.0837 4.31222 16.3174C4.85939 17.9066 6.8773 18.3562 8.0518 17.1504C8.43517 16.7531 8.6408 16.2826 8.66868 15.7145C8.75232 14.1949 7.33386 13.0344 5.86312 13.4178ZM6.88427 14.8188C7.17703 15.007 7.31643 15.2579 7.31992 15.5995C7.3234 16.3732 6.37892 16.7775 5.82478 16.2407C5.63658 16.056 5.57036 15.9201 5.54945 15.6587C5.51809 15.2753 5.7028 14.9512 6.04783 14.7874C6.28831 14.6724 6.67865 14.6864 6.88427 14.8188ZM0.401866 0.0660744C0.238063 0.142748 0.0916855 0.289125 0.039408 0.428532C-0.0756025 0.731741 0.0707745 1.12557 0.353073 1.27194C0.401866 1.29982 0.966463 1.41832 1.60773 1.53333C2.249 1.65183 2.77875 1.75638 2.78572 1.76335C2.79618 1.77032 3.24576 4.02523 3.78945 6.77154C4.32965 9.51437 4.80015 11.8285 4.83151 11.9087C4.90122 12.1038 5.08942 12.2572 5.31247 12.3025C5.43445 12.3269 7.03763 12.3339 10.2823 12.3304L15.0744 12.3199L15.2208 12.2398C15.2291 12.2354 15.2372 12.2312 15.2451 12.2272C15.2707 12.214 15.2938 12.2022 15.3153 12.188C15.5055 12.0628 15.5763 11.756 16.2725 8.73745C16.2964 8.63372 16.3211 8.52678 16.3465 8.41654C16.3671 8.32769 16.3872 8.24094 16.4068 8.15626C17.1325 5.02355 17.2056 4.70784 17.0841 4.51458C17.0704 4.49292 17.0544 4.47281 17.0365 4.45043C17.032 4.44478 17.0274 4.43899 17.0226 4.43299C16.9634 4.36329 16.8484 4.26919 16.7647 4.22388L16.6114 4.14721H10.6273H4.6468L4.34011 2.58585C4.17282 1.7285 4.00204 0.961763 3.96719 0.881603C3.88703 0.710831 3.7302 0.578394 3.53503 0.526117C3.32244 0.466869 0.753868 -0.000143051 0.638857 -0.000143051C0.586579 -0.000143051 0.478539 0.0312233 0.401866 0.0660744ZM15.6146 5.54824C15.6146 5.57264 15.3323 6.79942 14.9908 8.27713L14.3704 10.9607L10.1847 10.9712L5.99905 10.9781L5.96419 10.7969C5.94328 10.6958 5.70629 9.49694 5.43793 8.13772C5.16958 6.77502 4.94304 5.6284 4.93258 5.5831L4.91516 5.50642H10.2649C14.5203 5.50642 15.6146 5.51688 15.6146 5.54824Z" fill="white"/>
</svg>
