<svg width="24" height="24" viewBox="0 0 24 24" fill="none" xmlns="http://www.w3.org/2000/svg">
<path d="M11.0769 11.0769V0.923077C11.0769 0.678262 11.1742 0.443473 11.3473 0.270363C11.5204 0.0972524 11.7552 0 12 0C12.2448 0 12.4796 0.0972524 12.6527 0.270363C12.8258 0.443473 12.9231 0.678262 12.9231 0.923077V11.0769H23.0769C23.3217 11.0769 23.5565 11.1742 23.7296 11.3473C23.9027 11.5204 24 11.7552 24 12C24 12.2448 23.9027 12.4796 23.7296 12.6527C23.5565 12.8258 23.3217 12.9231 23.0769 12.9231H12.9231V23.0769C12.9231 23.3217 12.8258 23.5565 12.6527 23.7296C12.4796 23.9027 12.2448 24 12 24C11.7552 24 11.5204 23.9027 11.3473 23.7296C11.1742 23.5565 11.0769 23.3217 11.0769 23.0769V12.9231H0.923077C0.678262 12.9231 0.443473 12.8258 0.270363 12.6527C0.0972524 12.4796 0 12.2448 0 12C0 11.7552 0.0972524 11.5204 0.270363 11.3473C0.443473 11.1742 0.678262 11.0769 0.923077 11.0769H11.0769Z" fill="#5C5C5C"/>
</svg>
