<svg width="15" height="15" viewBox="0 0 15 15" fill="none" xmlns="http://www.w3.org/2000/svg">
<path d="M2.11912 4.89474C1.88483 4.94933 1.67102 5.12902 1.56411 5.35875C1.5118 5.47476 1.50042 5.5248 1.5027 5.68857C1.5027 6.05251 1.28434 5.80685 4.21402 8.74109C5.98139 10.5107 6.85256 11.3683 6.92307 11.4069C7.08912 11.4956 7.28246 11.5275 7.45533 11.4911C7.53267 11.4752 7.64412 11.4365 7.70099 11.4069C7.7715 11.3683 8.64267 10.5107 10.41 8.74109C13.3397 5.80685 13.1214 6.05251 13.1214 5.68857C13.1214 5.5248 13.1123 5.47476 13.0577 5.35421C12.8666 4.93568 12.3571 4.75826 11.9408 4.96525C11.8817 4.99482 11.0583 5.8023 9.58208 7.27624L7.31203 9.54402L5.04198 7.27624C3.55894 5.79548 2.74236 4.99482 2.68322 4.96525C2.51035 4.88109 2.29653 4.85379 2.11912 4.89474Z" fill="black"/>
</svg>
