<svg width="18" height="18" viewBox="0 0 18 18" fill="none" xmlns="http://www.w3.org/2000/svg">
<path d="M7.69443 9.00049L0.514578 1.82063C0.341468 1.64752 0.244216 1.41274 0.244215 1.16792C0.244216 0.923105 0.341468 0.688317 0.514578 0.515207C0.687688 0.342097 0.922477 0.244844 1.16729 0.244844C1.41211 0.244843 1.6469 0.342097 1.82001 0.515207L8.99986 7.69506L16.1797 0.515207C16.3528 0.342096 16.5876 0.244843 16.8324 0.244844C17.0772 0.244844 17.312 0.342097 17.4851 0.515207C17.6583 0.688317 17.7555 0.923106 17.7555 1.16792C17.7555 1.41274 17.6583 1.64752 17.4851 1.82063L10.3053 9.00049L17.4851 16.1803C17.6583 16.3535 17.7555 16.5882 17.7555 16.8331C17.7555 17.0779 17.6583 17.3127 17.4851 17.4858C17.312 17.6589 17.0772 17.7561 16.8324 17.7561C16.5876 17.7561 16.3528 17.6589 16.1797 17.4858L8.99986 10.3059L1.82001 17.4858C1.6469 17.6589 1.41211 17.7561 1.16729 17.7561C0.922477 17.7561 0.687688 17.6589 0.514578 17.4858C0.341468 17.3127 0.244216 17.0779 0.244215 16.8331C0.244216 16.5882 0.341468 16.3535 0.514578 16.1803L7.69443 9.00049Z" fill="#1446AF"/>
</svg>
