<svg width="16" height="17" viewBox="0 0 16 17" fill="none" xmlns="http://www.w3.org/2000/svg">
<path fill-rule="evenodd" clip-rule="evenodd" d="M1.77778 13H14.2222C14.65 13 15 12.6625 15 12.25C15 11.8375 14.65 11.5 14.2222 11.5H1.77778C1.35 11.5 1 11.8375 1 12.25C1 12.6625 1.35 13 1.77778 13ZM1.77778 9.25H14.2222C14.65 9.25 15 8.9125 15 8.5C15 8.0875 14.65 7.75 14.2222 7.75H1.77778C1.35 7.75 1 8.0875 1 8.5C1 8.9125 1.35 9.25 1.77778 9.25ZM1 4.75C1 5.1625 1.35 5.5 1.77778 5.5H14.2222C14.65 5.5 15 5.1625 15 4.75C15 4.3375 14.65 4 14.2222 4H1.77778C1.35 4 1 4.3375 1 4.75Z" fill="#1D1D1D"/>
</svg>
