<svg width="40" height="40" viewBox="0 0 40 40" fill="none" xmlns="http://www.w3.org/2000/svg">
<circle cx="20" cy="20" r="20" fill="white"/>
<g clip-path="url(#clip0_5379_11877)">
<path d="M20.051 13.999H20.14C20.962 14.002 25.127 14.032 26.25 14.334C26.5895 14.4262 26.8989 14.6058 27.1472 14.855C27.3955 15.1042 27.574 15.4142 27.665 15.754C27.766 16.134 27.837 16.637 27.885 17.156L27.895 17.26L27.917 17.52L27.925 17.624C27.99 18.538 27.998 19.394 27.999 19.581V19.656C27.998 19.85 27.989 20.764 27.917 21.716L27.909 21.821L27.9 21.925C27.85 22.497 27.776 23.065 27.665 23.483C27.5743 23.823 27.3958 24.1331 27.1475 24.3823C26.8991 24.6316 26.5896 24.8111 26.25 24.903C25.09 25.215 20.681 25.237 20.07 25.238H19.928C19.619 25.238 18.341 25.232 17.001 25.186L16.831 25.18L16.744 25.176L16.573 25.169L16.402 25.162C15.292 25.113 14.235 25.034 13.748 24.902C13.4085 24.8102 13.0991 24.6308 12.8507 24.3818C12.6024 24.1327 12.4238 23.8228 12.333 23.483C12.222 23.066 12.148 22.497 12.098 21.925L12.09 21.82L12.082 21.716C12.0326 21.0384 12.0053 20.3594 12 19.68L12 19.557C12.002 19.342 12.01 18.599 12.064 17.779L12.071 17.676L12.074 17.624L12.082 17.52L12.104 17.26L12.114 17.156C12.162 16.637 12.233 16.133 12.334 15.754C12.4247 15.4141 12.6032 15.1039 12.8515 14.8547C13.0999 14.6055 13.4094 14.4259 13.749 14.334C14.236 14.204 15.293 14.124 16.403 14.074L16.573 14.067L16.745 14.061L16.831 14.058L17.002 14.051C17.9537 14.0204 18.9058 14.0034 19.858 14H20.051V13.999ZM18.4 17.209V22.027L22.557 19.619L18.4 17.209Z" fill="#1446AF"/>
</g>
<defs>
<clipPath id="clip0_5379_11877">
<rect width="16" height="16" fill="white" transform="translate(12 12)"/>
</clipPath>
</defs>
</svg>
