<svg width="40" height="40" viewBox="0 0 40 40" fill="none" xmlns="http://www.w3.org/2000/svg">
<circle cx="20" cy="20" r="20" fill="white"/>
<path d="M20.0001 17.9172C18.8532 17.9172 17.9173 18.8532 17.9173 20C17.9173 21.1469 18.8532 22.0829 20.0001 22.0829C21.1469 22.0829 22.0829 21.1469 22.0829 20C22.0829 18.8532 21.1469 17.9172 20.0001 17.9172ZM26.2469 20C26.2469 19.1375 26.2548 18.2829 26.2063 17.4219C26.1579 16.4219 25.9298 15.5344 25.1985 14.8032C24.4657 14.0704 23.5798 13.8438 22.5798 13.7954C21.7173 13.7469 20.8626 13.7547 20.0016 13.7547C19.1391 13.7547 18.2844 13.7469 17.4235 13.7954C16.4235 13.8438 15.536 14.0719 14.8048 14.8032C14.0719 15.536 13.8454 16.4219 13.7969 17.4219C13.7485 18.2844 13.7563 19.1391 13.7563 20C13.7563 20.861 13.7485 21.7172 13.7969 22.5782C13.8454 23.5782 14.0735 24.4657 14.8048 25.1969C15.5376 25.9297 16.4235 26.1563 17.4235 26.2047C18.286 26.2532 19.1407 26.2454 20.0016 26.2454C20.8641 26.2454 21.7188 26.2532 22.5798 26.2047C23.5798 26.1563 24.4673 25.9282 25.1985 25.1969C25.9313 24.4641 26.1579 23.5782 26.2063 22.5782C26.2563 21.7172 26.2469 20.8625 26.2469 20ZM20.0001 23.2047C18.2266 23.2047 16.7954 21.7735 16.7954 20C16.7954 18.2266 18.2266 16.7954 20.0001 16.7954C21.7735 16.7954 23.2048 18.2266 23.2048 20C23.2048 21.7735 21.7735 23.2047 20.0001 23.2047ZM23.336 17.4125C22.9219 17.4125 22.5876 17.0782 22.5876 16.6641C22.5876 16.25 22.9219 15.9157 23.336 15.9157C23.7501 15.9157 24.0844 16.25 24.0844 16.6641C24.0846 16.7624 24.0653 16.8598 24.0277 16.9507C23.9902 17.0415 23.935 17.1241 23.8655 17.1936C23.796 17.2631 23.7134 17.3183 23.6226 17.3558C23.5317 17.3934 23.4343 17.4127 23.336 17.4125Z" fill="#1446AF"/>
</svg>
