<svg width="40" height="40" viewBox="0 0 40 40" fill="none" xmlns="http://www.w3.org/2000/svg">
<circle cx="20" cy="20" r="20" fill="white"/>
<path fill-rule="evenodd" clip-rule="evenodd" d="M18.2857 17.9794H20.7617V19.2127C21.1183 18.5034 22.033 17.866 23.407 17.866C26.041 17.866 26.6663 19.278 26.6663 21.8687V26.6667H23.9997V22.4587C23.9997 20.9834 23.643 20.1514 22.735 20.1514C21.4757 20.1514 20.9523 21.048 20.9523 22.458V26.6667H18.2857V17.9794ZM13.713 26.5534H16.3797V17.866H13.713V26.5534ZM16.7617 15.0334C16.7618 15.2569 16.7174 15.4782 16.6313 15.6844C16.5451 15.8907 16.4188 16.0777 16.2597 16.2347C15.9373 16.5551 15.5009 16.7345 15.0463 16.7334C14.5926 16.7331 14.1572 16.5542 13.8343 16.2354C13.6758 16.0778 13.5499 15.8906 13.4639 15.6843C13.3779 15.4781 13.3334 15.2569 13.333 15.0334C13.333 14.582 13.513 14.15 13.835 13.8314C14.1576 13.5121 14.5932 13.3332 15.047 13.3334C15.5017 13.3334 15.9377 13.5127 16.2597 13.8314C16.581 14.15 16.7617 14.582 16.7617 15.0334Z" fill="#1446AF"/>
</svg>
