<svg width="8" height="13" viewBox="0 0 8 13" fill="none" xmlns="http://www.w3.org/2000/svg">
<path d="M0.220595 11.7394C0.278825 11.9894 0.470498 12.2174 0.715549 12.3315C0.839287 12.3873 0.892664 12.3994 1.06735 12.397C1.45555 12.397 1.19352 12.6299 4.32337 9.50488C6.21098 7.61969 7.12568 6.69044 7.16692 6.61523C7.26155 6.43811 7.29551 6.23188 7.25669 6.04749C7.23971 5.96499 7.19847 5.84611 7.16692 5.78545C7.12568 5.71024 6.21098 4.78099 4.32337 2.8958C1.19352 -0.229201 1.45555 0.00371838 1.06735 0.00371838C0.892664 0.00371838 0.839287 0.013423 0.710696 0.0716534C0.264268 0.275457 0.0750208 0.818935 0.295809 1.26294C0.32735 1.32602 1.18867 2.20432 2.76087 3.77895L5.17983 6.20034L2.76087 8.62173C1.18139 10.2036 0.32735 11.0747 0.295809 11.1377C0.206038 11.3221 0.176923 11.5502 0.220595 11.7394Z" fill="#BEBEBE"/>
</svg>
