<svg width="8" height="13" viewBox="0 0 8 13" fill="none" xmlns="http://www.w3.org/2000/svg">
<path d="M7.73075 0.890945C7.67441 0.649151 7.48896 0.428485 7.25186 0.318152C7.13214 0.264159 7.08049 0.252422 6.91147 0.254769C6.53587 0.254769 6.7894 0.029408 3.76111 3.053C1.93475 4.87702 1.04973 5.77612 1.00983 5.84889C0.918274 6.02026 0.885409 6.2198 0.922969 6.39821C0.939402 6.47802 0.97931 6.59305 1.00983 6.65174C1.04973 6.72451 1.93475 7.62361 3.76111 9.44763C6.7894 12.4712 6.53587 12.2459 6.91147 12.2459C7.08049 12.2459 7.13214 12.2365 7.25656 12.1801C7.6885 11.9829 7.8716 11.4571 7.65798 11.0275C7.62746 10.9665 6.7941 10.1167 5.27291 8.59313L2.93244 6.25032L5.27291 3.9075C6.80114 2.37692 7.62746 1.53416 7.65798 1.47313C7.74484 1.29472 7.77301 1.07405 7.73075 0.890945Z" fill="#1446AF"/>
</svg>
