<svg width="36" height="36" viewBox="0 0 36 36" fill="none" xmlns="http://www.w3.org/2000/svg">
<circle cx="18" cy="18" r="17.25" stroke="#CECECE" stroke-width="1.5"/>
<path d="M19.9846 13.512C19.9395 13.3185 19.7911 13.142 19.6014 13.0537C19.5057 13.0105 19.4643 13.0012 19.3291 13.003C19.0286 13.003 19.2315 12.8227 16.8088 15.2416C15.3477 16.7008 14.6397 17.4201 14.6078 17.4783C14.5346 17.6154 14.5083 17.7751 14.5383 17.9178C14.5515 17.9816 14.5834 18.0737 14.6078 18.1206C14.6397 18.1788 15.3477 18.8981 16.8088 20.3573C19.2315 22.7762 19.0286 22.5959 19.3291 22.5959C19.4643 22.5959 19.5057 22.5884 19.6052 22.5433C19.9508 22.3856 20.0972 21.9649 19.9263 21.6212C19.9019 21.5724 19.2352 20.8926 18.0183 19.6737L16.1459 17.7995L18.0183 15.9252C19.2409 14.7008 19.9019 14.0265 19.9263 13.9777C19.9958 13.835 20.0184 13.6585 19.9846 13.512Z" fill="black"/>
</svg>
