<svg width="200" height="40" viewBox="0 0 200 40" fill="none" xmlns="http://www.w3.org/2000/svg">
<path d="M5.51432 30.8413C3.25203 30.2688 1.41393 29.4459 0 28.444L2.75716 22.1826C4.10039 23.0771 5.62036 23.7927 7.38777 24.3294C9.15518 24.8661 10.8519 25.1523 12.5486 25.1523C15.7653 25.1523 17.3913 24.3294 17.3913 22.7193C17.3913 21.8606 16.9318 21.2165 16.0127 20.8229C15.0937 20.3578 13.609 19.9284 11.5942 19.4633C9.33192 18.9982 7.49381 18.4615 5.97384 17.9248C4.48922 17.3523 3.18134 16.4578 2.12089 15.2413C1.06045 13.989 0.494875 12.3431 0.494875 10.2321C0.494875 8.40734 0.989749 6.76147 1.9795 5.25872C2.96925 3.79174 4.45387 2.61101 6.39802 1.75229C8.34217 0.893578 10.8165 0.5 13.6444 0.5C15.5885 0.5 17.5327 0.714679 19.4062 1.17982C21.315 1.60917 22.9763 2.25321 24.4256 3.11193L21.8452 9.44495C19.0173 7.87064 16.2602 7.11927 13.609 7.11927C11.9477 7.11927 10.7105 7.36973 9.96819 7.87064C9.19053 8.37156 8.83705 9.0156 8.83705 9.80275C8.83705 10.5899 9.26122 11.2339 10.1803 11.6275C11.0993 12.0211 12.5486 12.4505 14.5635 12.8798C16.8257 13.3807 18.6992 13.8817 20.1838 14.4541C21.6684 14.9908 22.941 15.8853 24.0368 17.1018C25.1326 18.3183 25.6628 19.9642 25.6628 22.0752C25.6628 23.8642 25.1679 25.5101 24.1782 26.9771C23.1884 28.4083 21.7038 29.589 19.7243 30.4477C17.7448 31.3064 15.3411 31.7716 12.5133 31.7716C10.1096 31.7716 7.7766 31.4495 5.51432 30.8413Z" fill="white"/>
<path d="M47.685 10.1248C49.6999 11.878 50.6896 14.5972 50.6896 18.211V31.1275H43.1958V28.1578C42.0293 30.4119 39.767 31.5569 36.4089 31.5569C34.6415 31.5569 33.0862 31.2348 31.7783 30.6266C30.4704 29.9826 29.4807 29.1238 28.8091 28.0504C28.1728 26.977 27.8193 25.7605 27.8193 24.3651C27.8193 22.1468 28.6677 20.4651 30.3291 19.2486C31.9904 18.0321 34.5708 17.4238 38.035 17.4238H42.6302C42.4888 14.955 40.8628 13.7385 37.7522 13.7385C36.6564 13.7385 35.5252 13.9174 34.3941 14.2752C33.263 14.633 32.3086 15.1339 31.4955 15.7422L28.8091 10.1963C30.0816 9.3376 31.6369 8.65778 33.4397 8.19265C35.2778 7.72751 37.0806 7.47705 38.9187 7.47705C42.7716 7.51283 45.6702 8.37155 47.685 10.1248ZM41.1103 25.689C41.8172 25.2238 42.3121 24.544 42.6302 23.6853V21.6816H39.1661C36.8331 21.6816 35.6313 22.4688 35.6313 24.0431C35.6313 24.7587 35.9141 25.3312 36.4443 25.7605C36.9745 26.1899 37.7168 26.4046 38.6359 26.4046C39.5549 26.4046 40.4033 26.1541 41.1103 25.689Z" fill="white"/>
<path d="M75.9631 8.9798C77.6598 9.98164 79.0384 11.3771 80.0281 13.2018C81.0179 15.0266 81.5481 17.1376 81.5481 19.5349C81.5481 21.9321 81.0532 24.0431 80.0281 25.8679C79.0384 27.6926 77.6598 29.0881 75.9631 30.0899C74.231 31.056 72.3222 31.5569 70.2367 31.5569C67.5502 31.5569 65.4293 30.7339 63.8387 29.1238V39.5H55.7793V7.87063H63.4499V10.1963C64.9345 8.40733 67.1968 7.47705 70.2367 7.47705C72.3222 7.51283 74.231 7.97797 75.9631 8.9798ZM72.0395 23.578C72.9585 22.5761 73.3827 21.2523 73.3827 19.5349C73.3827 17.8174 72.9232 16.4578 72.0395 15.4917C71.1204 14.4899 69.9893 14.0248 68.5753 14.0248C67.1614 14.0248 65.9949 14.5257 65.1112 15.4917C64.1922 16.4936 63.768 17.8174 63.768 19.5349C63.768 21.2523 64.2275 22.6119 65.1112 23.578C66.0303 24.5798 67.1614 25.0449 68.5753 25.0449C69.9539 25.0449 71.1204 24.5798 72.0395 23.578Z" fill="white"/>
<path d="M103.288 10.1248C105.302 11.878 106.292 14.5972 106.292 18.211V31.1275H98.7983V28.1578C97.6318 30.4119 95.3696 31.5569 92.0115 31.5569C90.2441 31.5569 88.6887 31.2348 87.3809 30.6266C86.073 29.9826 85.0832 29.1238 84.447 28.0504C83.7754 26.977 83.4219 25.7605 83.4219 24.3651C83.4219 22.1468 84.2702 20.4651 85.9316 19.2486C87.593 18.0321 90.1734 17.4238 93.6375 17.4238H98.2328C98.0914 14.955 96.4654 13.7385 93.3547 13.7385C92.2589 13.7385 91.1278 13.9174 89.9966 14.2752C88.8655 14.633 87.9111 15.1339 87.0981 15.7422L84.3763 10.1963C85.6488 9.3376 87.2041 8.65778 89.0069 8.19265C90.845 7.72751 92.6477 7.47705 94.4859 7.47705C98.3742 7.51283 101.273 8.37155 103.288 10.1248ZM96.7128 25.689C97.4198 25.2238 97.9146 24.544 98.2328 23.6853V21.6816H94.7686C92.4357 21.6816 91.2338 22.4688 91.2338 24.0431C91.2338 24.7587 91.5166 25.3312 92.0468 25.7605C92.5771 26.1899 93.3194 26.4046 94.2384 26.4046C95.1575 26.4046 96.0058 26.1541 96.7128 25.689Z" fill="white"/>
<path d="M133.262 10.089C134.994 11.8064 135.878 14.3826 135.878 17.8532V31.1633H127.819V19.177C127.819 15.9926 126.546 14.4183 124.036 14.4183C122.658 14.4183 121.527 14.8835 120.714 15.778C119.865 16.7082 119.476 18.0679 119.476 19.8926V31.1275H111.417V7.87063H119.088V10.411C120.007 9.48072 121.067 8.72934 122.304 8.22843C123.541 7.72751 124.92 7.47705 126.369 7.47705C129.232 7.51283 131.53 8.37155 133.262 10.089Z" fill="white"/>
<path d="M140.862 30.1616C139.943 29.2313 139.448 28.0864 139.448 26.691C139.448 25.2598 139.908 24.1148 140.827 23.2203C141.746 22.3258 142.912 21.8965 144.291 21.8965C145.705 21.8965 146.871 22.3258 147.755 23.2203C148.674 24.1148 149.098 25.2598 149.098 26.691C149.098 28.0864 148.639 29.2671 147.72 30.1616C146.801 31.0561 145.634 31.5213 144.256 31.5213C142.948 31.557 141.817 31.0919 140.862 30.1616Z" fill="#FFC600"/>
<path d="M171.863 10.1248C173.877 11.878 174.867 14.5972 174.867 18.211V31.1275H167.373V28.1578C166.207 30.4119 163.945 31.5569 160.586 31.5569C158.819 31.5569 157.264 31.2348 155.956 30.6266C154.683 29.9826 153.694 29.1238 153.022 28.0504C152.35 26.977 152.032 25.7605 152.032 24.3651C152.032 22.1468 152.881 20.4651 154.542 19.2486C156.203 18.0321 158.784 17.4238 162.248 17.4238H166.843C166.702 14.955 165.076 13.7385 161.965 13.7385C160.869 13.7385 159.738 13.9174 158.607 14.2752C157.476 14.633 156.521 15.1339 155.708 15.7422L152.987 10.1963C154.259 9.3376 155.814 8.65778 157.617 8.19265C159.455 7.72751 161.258 7.47705 163.096 7.47705C166.949 7.51283 169.883 8.37155 171.863 10.1248ZM165.288 25.689C165.995 25.2238 166.49 24.544 166.808 23.6853V21.6816H163.344C161.011 21.6816 159.809 22.4688 159.809 24.0431C159.809 24.7587 160.092 25.3312 160.622 25.7605C161.152 26.1899 161.894 26.4046 162.813 26.4046C163.732 26.4046 164.581 26.1541 165.288 25.689Z" fill="#FFC600"/>
<path d="M200 25.0449V31.1275H178.791V26.333L189.431 13.9174H179.074V7.87061H199.576V12.6651L188.936 25.0807H200V25.0449Z" fill="#FFC600"/>
</svg>
