<svg width="24" height="24" viewBox="0 0 24 24" fill="none" xmlns="http://www.w3.org/2000/svg">
<path d="M6.60951 9.89509C7.40928 11.3903 8.39652 12.7774 9.54732 14.0227C10.8937 15.4311 12.4726 16.5971 14.2147 17.4696C14.2784 17.498 14.3473 17.5127 14.4171 17.5127C14.4868 17.5127 14.5558 17.498 14.6195 17.4696C14.8333 17.3748 15.0254 17.237 15.1837 17.0648C15.3653 16.8705 15.5353 16.6657 15.6928 16.4515C16.4472 15.464 17.3733 14.2435 18.6858 14.8569L18.7655 14.8937L23.1385 17.4083H23.1753C23.4437 17.6013 23.6595 17.8585 23.803 18.1563C23.9466 18.4541 24.0133 18.7831 23.9972 19.1133C23.9754 19.8747 23.7646 20.6187 23.3838 21.2783C22.8996 22.1027 22.1616 22.7481 21.2801 23.1183C20.4535 23.4762 19.5799 23.7137 18.6858 23.8236C17.3576 24.0173 16.0026 23.9062 14.7237 23.4985C13.3215 23.0258 11.9843 22.3787 10.7433 21.5727L10.639 21.5053C9.98891 21.1005 9.28972 20.6711 8.6028 20.1621C5.86274 18.0921 3.56818 15.4909 1.85627 12.514C0.464036 9.98709 -0.302616 7.25781 0.114443 4.6512C0.287128 3.26335 0.969065 1.98909 2.028 1.07554C2.56217 0.661295 3.17367 0.357866 3.82664 0.183039C4.4796 0.0082119 5.1609 -0.0344947 5.83059 0.0574234C5.92167 0.0647118 6.00956 0.0942483 6.08656 0.143439C6.16355 0.192631 6.22729 0.259972 6.27218 0.339551L9.07506 5.08052C9.26283 5.29469 9.38472 5.55856 9.42607 5.84037C9.46741 6.12218 9.42646 6.40994 9.30812 6.66902C9.06755 7.16724 8.69668 7.59109 8.23481 7.89566C8.08761 8.02446 7.90975 8.15326 7.71962 8.28819C7.1063 8.74205 6.37645 9.2695 6.62178 9.88896L6.60951 9.89509Z" fill="#FFC600"/>
</svg>
