<svg width="24" height="24" viewBox="0 0 24 24" fill="none" xmlns="http://www.w3.org/2000/svg">
<path d="M9 8.79049V15.2105C9 15.6705 9.21 16.0205 9.63 16.2605C10.05 16.5005 10.46 16.4805 10.86 16.2005L15.84 13.0205C16.22 12.7805 16.41 12.4405 16.41 12.0005C16.41 11.5605 16.22 11.2205 15.84 10.9805L10.86 7.80049C10.46 7.52049 10.05 7.50049 9.63 7.74049C9.21 7.98049 9 8.33049 9 8.79049ZM12 24.0005C10.34 24.0005 8.78 23.6853 7.32 23.0549C5.86 22.4245 4.59 21.5697 3.51 20.4905C2.43 19.4105 1.5752 18.1405 0.9456 16.6805C0.316 15.2205 0.0008 13.6605 0 12.0005C0 10.3405 0.3152 8.78049 0.9456 7.32049C1.576 5.86049 2.4308 4.59049 3.51 3.51049C4.59 2.43049 5.86 1.57569 7.32 0.946088C8.78 0.316488 10.34 0.00128828 12 0.000488281C13.66 0.000488281 15.22 0.315688 16.68 0.946088C18.14 1.57649 19.41 2.43129 20.49 3.51049C21.57 4.59049 22.4252 5.86049 23.0556 7.32049C23.686 8.78049 24.0008 10.3405 24 12.0005C24 13.6605 23.6848 15.2205 23.0544 16.6805C22.424 18.1405 21.5692 19.4105 20.49 20.4905C19.41 21.5705 18.14 22.4257 16.68 23.0561C15.22 23.6865 13.66 24.0013 12 24.0005Z" fill="#FFC600"/>
</svg>
