<svg width="18" height="20" viewBox="0 0 18 20" fill="none" xmlns="http://www.w3.org/2000/svg">
<path d="M8.67399 3.37416C8.53598 3.41579 8.3536 3.5537 8.27227 3.676C8.12933 3.89457 8.13426 3.76707 8.13426 6.59552V9.19498H5.79788C4.23536 9.19498 3.4122 9.20539 3.31362 9.2236C2.93901 9.29386 2.69995 9.5957 2.69995 10.0016C2.69995 10.4075 2.93901 10.7094 3.31362 10.7796C3.4122 10.7979 4.23536 10.8083 5.79788 10.8083H8.13426L8.13919 13.4285L8.14658 16.0514L8.20327 16.1815C8.33389 16.4782 8.58281 16.6473 8.89827 16.6499C9.21619 16.6499 9.44293 16.4912 9.58587 16.1685L9.64995 16.0254L9.65734 13.4155L9.66474 10.8083H12.0997C13.7312 10.8083 14.5815 10.7979 14.6801 10.7796C15.3529 10.6521 15.5279 9.74141 14.9561 9.33549C14.8797 9.28085 14.786 9.24182 14.6825 9.2236C14.5667 9.20279 13.8421 9.20018 12.08 9.21319L9.63763 9.22881V6.61113C9.63763 4.04809 9.63763 3.99085 9.58834 3.85294C9.52919 3.6864 9.37392 3.50946 9.21126 3.4236C9.07325 3.35074 8.82926 3.32732 8.67399 3.37416Z" fill="#C2C2C2"/>
</svg>
