<svg width="36" height="36" viewBox="0 0 36 36" fill="none" xmlns="http://www.w3.org/2000/svg">
<circle cx="18" cy="18" r="17.25" transform="rotate(-180 18 18)" stroke="#CECECE" stroke-width="1.5"/>
<path d="M16.0154 22.488C16.0605 22.6815 16.2089 22.858 16.3986 22.9463C16.4943 22.9895 16.5357 22.9988 16.6709 22.997C16.9714 22.997 16.7685 23.1773 19.1912 20.7584C20.6523 19.2992 21.3603 18.5799 21.3922 18.5217C21.4654 18.3846 21.4917 18.2249 21.4617 18.0822C21.4485 18.0184 21.4166 17.9263 21.3922 17.8794C21.3603 17.8212 20.6523 17.1019 19.1912 15.6427C16.7685 13.2238 16.9714 13.4041 16.6709 13.4041C16.5357 13.4041 16.4943 13.4116 16.3948 13.4567C16.0492 13.6144 15.9028 14.0351 16.0737 14.3788C16.0981 14.4276 16.7648 15.1074 17.9817 16.3263L19.8541 18.2005L17.9817 20.0748C16.7591 21.2992 16.0981 21.9735 16.0737 22.0223C16.0042 22.165 15.9816 22.3415 16.0154 22.488Z" fill="black"/>
</svg>
