<svg width="16" height="16" viewBox="0 0 16 16" fill="none" xmlns="http://www.w3.org/2000/svg">
<path d="M14.9175 14.0819L11.3887 10.5531C12.3498 9.37756 12.8224 7.87761 12.7086 6.36346C12.5948 4.84932 11.9034 3.43683 10.7774 2.41816C9.6514 1.39948 8.17694 0.852564 6.659 0.890524C5.14106 0.928483 3.69578 1.54842 2.6221 2.6221C1.54842 3.69578 0.928483 5.14106 0.890524 6.659C0.852564 8.17694 1.39948 9.6514 2.41816 10.7774C3.43683 11.9034 4.84932 12.5948 6.36346 12.7086C7.87761 12.8224 9.37756 12.3498 10.5531 11.3887L14.0819 14.9175C14.1946 15.0183 14.3417 15.0721 14.4928 15.0678C14.644 15.0636 14.7878 15.0016 14.8947 14.8947C15.0016 14.7878 15.0636 14.644 15.0678 14.4928C15.0721 14.3417 15.0183 14.1946 14.9175 14.0819ZM6.81592 11.5439C5.88018 11.5443 4.96534 11.2672 4.18713 10.7476C3.40891 10.228 2.80229 9.48931 2.44399 8.62489C2.0857 7.76047 1.99184 6.8092 2.17429 5.89143C2.35673 4.97365 2.80728 4.13061 3.46895 3.46895C4.13061 2.80728 4.97365 2.35673 5.89143 2.17429C6.8092 1.99184 7.76047 2.0857 8.62489 2.44399C9.48931 2.80229 10.228 3.40891 10.7476 4.18713C11.2672 4.96534 11.5443 5.88018 11.5439 6.81592C11.5421 8.06931 11.0434 9.27087 10.1572 10.1572C9.27087 11.0434 8.06931 11.5421 6.81592 11.5439Z" fill="black"/>
</svg>
