<svg width="8" height="13" viewBox="0 0 8 13" fill="none" xmlns="http://www.w3.org/2000/svg">
<path d="M0.269246 12.1091C0.325586 12.3508 0.511039 12.5715 0.748138 12.6818C0.867861 12.7358 0.919506 12.7476 1.08853 12.7452C1.46413 12.7452 1.2106 12.9706 4.23889 9.947C6.06525 8.12298 6.95027 7.22388 6.99017 7.15111C7.08173 6.97974 7.11459 6.7802 7.07703 6.60179C7.0606 6.52198 7.02069 6.40695 6.99017 6.34826C6.95027 6.27549 6.06525 5.37639 4.23889 3.55237C1.2106 0.528777 1.46413 0.754138 1.08853 0.754138C0.919506 0.754138 0.867861 0.763528 0.743443 0.819869C0.311501 1.01706 0.128395 1.5429 0.342018 1.9725C0.372536 2.03353 1.2059 2.88333 2.72709 4.40687L5.06756 6.74968L2.72709 9.0925C1.19886 10.6231 0.372536 11.4658 0.342018 11.5269C0.255161 11.7053 0.22699 11.9259 0.269246 12.1091Z" fill="white"/>
</svg>
